<?xml version="1.0" encoding="utf-8"?>
<!-- Generator: Adobe Illustrator 16.0.0, SVG Export Plug-In . SVG Version: 6.00 Build 0)  -->
<!DOCTYPE svg PUBLIC "-//W3C//DTD SVG 1.1//EN" "http://www.w3.org/Graphics/SVG/1.1/DTD/svg11.dtd">
<svg version="1.1" id="Layer_1" xmlns="http://www.w3.org/2000/svg" xmlns:xlink="http://www.w3.org/1999/xlink" x="0px" y="0px"
	 width="250px" height="179px" viewBox="0 0 250 179" enable-background="new 0 0 250 179" xml:space="preserve">
<g>
	<g>
		<path fill="#F37C7E" d="M72.962,74.613c-0.451,0.047-1.004,0.117-1.661,0.211c-0.554,0.072-1.228,0.183-2.021,0.337
			c-0.793,0.155-1.68,0.345-2.659,0.576c-1.908,0.449-4.151,1.084-6.72,1.929c-2.568,0.846-5.375,1.954-8.392,3.351
			c-0.498-5.377-1.234-10.554-2.312-15.514c-1.077-4.96-2.304-9.674-3.743-14.128c-1.308-4.049-2.717-7.802-4.264-11.25
			c-1.546-3.448-3.141-6.579-4.802-9.388c3.271-0.492,6.167-0.977,8.7-1.485c2.533-0.508,4.707-0.968,6.526-1.4
			c1.254-0.298,2.354-0.577,3.301-0.84c0.946-0.264,1.727-0.484,2.345-0.669c0.737-0.234,1.365-0.442,1.884-0.625
			c2.091,4.26,4.413,8.425,6.923,12.51c2.511,4.085,5.333,8.138,8.406,12.186c0.852-4.818,1.447-9.576,1.722-14.278
			c0.275-4.702,0.245-9.445-0.144-14.23c0.161,0.188,0.322,0.376,0.483,0.564c-0.161-0.188-0.322-0.376-0.483-0.564
			c3.218-0.09,6.118-0.228,8.712-0.435c2.594-0.208,4.877-0.414,6.854-0.639c1.318-0.15,2.475-0.297,3.475-0.448
			c1-0.15,1.857-0.281,2.575-0.396c0.81-0.147,1.51-0.282,2.1-0.405c-0.446,2.393-0.677,5.198-0.696,8.414
			c-0.02,3.217,0.167,6.644,0.548,10.283c0.271,2.589,0.641,5.245,1.104,7.97c0.463,2.726,1.016,5.43,1.651,8.115
			c0.634,2.686,1.359,5.323,2.168,7.914c0.808,2.591,1.695,5.045,2.652,7.369c-0.525-0.005-1.127-0.001-1.808,0.01
			c-0.604,0.005-1.31,0.033-2.117,0.087c-0.809,0.054-1.746,0.134-2.812,0.246c-2.027,0.214-4.401,0.569-7.112,1.094
			c-2.71,0.524-5.641,1.274-8.769,2.272c0.41-1.261,0.659-2.826,0.747-4.698s0.087-3.847-0.004-5.926
			c-0.091-2.079-0.239-4.142-0.447-6.191c-0.208-2.048-0.42-3.875-0.641-5.481c-0.572,1.561-1.095,3.141-1.57,4.74
			s-0.938,3.301-1.382,5.105c-0.445,1.805-0.878,3.747-1.291,5.828c-0.413,2.081-0.835,4.396-1.248,6.941
			c-1.524-2.181-2.934-4.15-4.216-5.914c-1.281-1.763-2.501-3.39-3.653-4.884c-1.152-1.494-2.282-2.899-3.387-4.216
			c-1.105-1.316-2.242-2.618-3.409-3.903c1.185,3.551,2.529,7.012,4.009,10.392C69.568,68.532,71.203,71.682,72.962,74.613z"/>
		<path fill="#F37C7E" d="M128.493,68.848c-0.442-0.022-0.963-0.056-1.562-0.099c-0.521-0.019-1.133-0.037-1.835-0.051
			c-0.704-0.013-1.511-0.011-2.422,0.009c-1.692,0.039-3.643,0.164-5.845,0.391c-2.203,0.227-4.578,0.601-7.112,1.134
			c0.415-0.923,0.741-2.067,0.976-3.435c0.235-1.367,0.411-2.823,0.524-4.37c0.113-1.546,0.177-3.106,0.188-4.681
			c0.011-1.574,0-3.018-0.035-4.332c-0.036-1.313-0.077-2.427-0.125-3.34c-0.048-0.913-0.08-1.486-0.096-1.72
			c-0.264-3.037-0.583-5.871-0.966-8.503c-0.164-1.117-0.35-2.245-0.562-3.382s-0.441-2.209-0.692-3.216
			c-0.25-1.006-0.516-1.905-0.8-2.697c-0.284-0.792-0.595-1.411-0.933-1.858c2.489,0.16,4.781,0.254,6.883,0.274
			c2.102,0.02,4,0.01,5.701-0.039c1.092-0.031,2.072-0.071,2.937-0.124c0.865-0.052,1.6-0.103,2.208-0.158
			c0.729-0.056,1.366-0.12,1.913-0.194c-0.533,2.113-0.952,4.66-1.258,7.64c-0.307,2.98-0.429,6.17-0.382,9.567
			c0.027,1.946,0.111,3.914,0.25,5.904c0.138,1.991,0.344,3.975,0.611,5.953c0.269,1.979,0.605,3.92,1.006,5.828
			C127.467,65.259,127.944,67.091,128.493,68.848z M106.81,19.316c-0.075-1.075,0.13-2.105,0.622-3.089
			c0.491-0.983,1.202-1.861,2.134-2.631c0.933-0.77,2.047-1.394,3.344-1.866c1.296-0.472,2.688-0.736,4.167-0.788
			c1.478-0.052,2.876,0.115,4.186,0.495c1.309,0.38,2.456,0.924,3.439,1.627c0.983,0.704,1.753,1.529,2.314,2.475
			c0.56,0.946,0.838,1.96,0.841,3.038c0.003,1.078-0.268,2.098-0.807,3.062c-0.538,0.964-1.274,1.808-2.205,2.534
			c-0.932,0.728-2.012,1.307-3.244,1.745c-1.232,0.438-2.549,0.681-3.956,0.729c-1.408,0.05-2.747-0.099-4.024-0.449
			c-1.278-0.35-2.407-0.852-3.392-1.511c-0.984-0.659-1.782-1.448-2.39-2.372C107.231,21.39,106.885,20.392,106.81,19.316z"/>
		<path fill="#F37C7E" d="M155.842,38.28c-0.915-0.08-1.76,0.057-2.532,0.407c-0.771,0.35-1.474,0.873-2.103,1.568
			c-0.631,0.694-1.195,1.542-1.693,2.542c-0.499,1-0.922,2.112-1.27,3.334c-0.146,1.988-0.237,4.003-0.279,6.044
			c-0.042,2.042-0.016,4.065,0.072,6.068c0.089,2.003,0.248,3.965,0.475,5.886c0.226,1.92,0.535,3.754,0.924,5.5
			c-0.414-0.054-0.892-0.125-1.434-0.211c-0.466-0.056-1.03-0.119-1.691-0.185c-0.66-0.065-1.422-0.125-2.28-0.172
			c-1.613-0.09-3.483-0.116-5.609-0.063c-2.124,0.054-4.479,0.236-7.049,0.564c0.326-1.31,0.621-2.912,0.889-4.808
			c0.267-1.895,0.5-3.954,0.702-6.178c0.201-2.224,0.374-4.548,0.517-6.972c0.142-2.423,0.237-4.818,0.28-7.186
			c0.032-1.757,0.034-3.48,0.006-5.168s-0.082-3.283-0.161-4.785c-0.08-1.501-0.199-2.886-0.362-4.154
			c-0.162-1.268-0.36-2.36-0.594-3.277c2.471,0.357,4.713,0.641,6.735,0.836c2.021,0.196,3.838,0.339,5.452,0.42
			c1.036,0.052,1.95,0.085,2.745,0.096c0.794,0.011,1.482,0.014,2.064,0.004c0.645-0.028,1.229-0.059,1.753-0.092
			c-0.454,1.144-0.822,2.422-1.108,3.836c1.674-1.366,3.485-2.324,5.42-2.867c1.935-0.543,3.737-0.727,5.386-0.561
			c2.748,0.277,5.026,0.926,6.812,1.913c1.785,0.988,3.16,2.178,4.121,3.553c0.961,1.376,1.563,2.88,1.818,4.506
			c0.254,1.626,0.24,3.239-0.025,4.838c-0.259,1.552-0.79,3.028-1.58,4.431c-0.79,1.404-1.789,2.619-2.989,3.65
			c-1.201,1.032-2.592,1.812-4.175,2.347c-1.581,0.536-3.294,0.7-5.155,0.5c-1.64-0.176-3.008-0.545-4.114-1.12
			c-1.106-0.574-2.004-1.262-2.69-2.073c-0.688-0.81-1.171-1.676-1.446-2.603s-0.379-1.833-0.304-2.722
			c0.08-0.934,0.322-1.833,0.73-2.696c0.411-0.862,0.967-1.63,1.676-2.302c0.157,0.53,0.376,0.943,0.655,1.237
			c0.28,0.294,0.574,0.514,0.882,0.658c0.334,0.17,0.703,0.286,1.106,0.346c1.072,0.098,1.897-0.021,2.479-0.365
			s0.903-0.781,0.965-1.318c0.028-0.256,0.004-0.553-0.076-0.892s-0.26-0.663-0.538-0.973c-0.277-0.31-0.686-0.592-1.224-0.843
			C157.483,38.529,156.756,38.36,155.842,38.28z"/>
		<path fill="#F37C7E" d="M219.155,41.385c-0.602,0.931-1.235,2.038-1.899,3.321c-0.665,1.283-1.334,2.682-2.01,4.197
			c-0.675,1.515-1.336,3.107-1.986,4.778c-0.649,1.671-1.258,3.348-1.824,5.031c-0.189,0.562-0.363,1.121-0.521,1.678
			c-0.159,0.559-0.326,1.095-0.502,1.61c-0.374,1.1-0.877,2.322-1.505,3.67c-0.629,1.348-1.417,2.68-2.356,4.002
			c-0.938,1.322-2.031,2.571-3.266,3.753c-1.235,1.183-2.647,2.146-4.23,2.902c-1.582,0.756-3.346,1.247-5.289,1.483
			c-1.945,0.237-4.092,0.083-6.466-0.447c-2.041-0.456-3.785-1.073-5.244-1.873c-1.459-0.799-2.682-1.722-3.672-2.779
			c-0.991-1.058-1.773-2.23-2.347-3.524c-0.575-1.294-0.987-2.645-1.232-4.057c-0.246-1.412-0.349-2.863-0.303-4.356
			c0.047-1.493,0.199-2.956,0.467-4.389c0.065-0.347,0.111-0.559,0.142-0.638c0.028-0.079,0.046-0.129,0.05-0.152
			c0.005-0.023,0.025-0.062,0.064-0.115c0.038-0.053,0.085-0.23,0.142-0.531c0.056-0.3,0.15-0.773,0.285-1.418
			c0.135-0.645,0.311-1.557,0.527-2.735c0.257-1.387,0.515-2.958,0.773-4.712c0.258-1.755,0.441-3.485,0.546-5.193
			c0.105-1.708,0.096-3.271-0.03-4.693s-0.427-2.489-0.899-3.202c2.399,0.696,4.664,1.292,6.802,1.782
			c2.138,0.491,4.096,0.912,5.876,1.254c1.178,0.227,2.245,0.421,3.203,0.58c0.959,0.158,1.79,0.29,2.495,0.39
			c0.796,0.12,1.519,0.215,2.169,0.285c-1.145,2.11-2.33,4.531-3.558,7.265c-1.229,2.733-2.275,5.947-3.177,9.631
			c-0.207,0.847-0.374,1.739-0.502,2.674c-0.129,0.936-0.164,1.813-0.108,2.632c0.057,0.82,0.233,1.52,0.532,2.103
			c0.297,0.584,0.772,0.947,1.428,1.093c0.82,0.183,1.522,0.103,2.112-0.246c0.591-0.348,1.106-0.864,1.545-1.548
			c0.439-0.684,0.808-1.477,1.101-2.376c0.294-0.9,0.566-1.805,0.816-2.715c0.785-2.964,1.42-5.756,1.9-8.378
			c0.204-1.114,0.386-2.244,0.546-3.392c0.159-1.147,0.278-2.237,0.354-3.271c0.076-1.033,0.094-1.971,0.052-2.813
			c-0.043-0.842-0.161-1.525-0.352-2.051c2.384,0.875,4.602,1.632,6.663,2.264c2.061,0.632,3.906,1.17,5.542,1.605
			c1.09,0.291,2.071,0.539,2.945,0.744c0.873,0.204,1.62,0.371,2.24,0.497C217.934,41.167,218.589,41.294,219.155,41.385z"/>
	</g>
</g>
<g id="F7Xl2c.tif">

		<image overflow="visible" width="534" height="535" id="Layer_0" xlink:href="/img/CED19DB98D0C8496.png"  transform="matrix(0.167 0 0 0.167 84.5 76.606)">
	</image>
</g>
</svg>
