<?xml version="1.0" encoding="UTF-8"?>
<svg width="50px" height="20.27px" viewBox="0 0 74 30" version="1.1" xmlns="http://www.w3.org/2000/svg" xmlns:xlink="http://www.w3.org/1999/xlink">
    <!-- Generator: Sketch 41.2 (35397) - http://www.bohemiancoding.com/sketch -->
    <title>SVG</title>
    <desc>Created with Sketch.</desc>
    <defs></defs>
    <g id="Page-1" stroke="none" stroke-width="1" fill="none" fill-rule="evenodd">
        <g id="SVG">
            <g id="twitter-blue" transform="translate(0.000000, 1.000000)" fill="#55ACEE">
                <path d="M37.3562314,3.35610159 C35.9823173,3.9224052 34.5081005,4.30645017 32.9592398,4.47786007 C34.5407572,3.59694336 35.7513878,2.19962719 36.3252127,0.539771801 C34.843998,1.35559615 33.204165,1.9479367 31.4593641,2.26905905 C30.0644564,0.882591606 28.0747302,0.0190328562 25.8727355,0.0190328562 C21.6436926,0.0190328562 18.2147388,3.20855889 18.2147388,7.14013793 C18.2147388,7.69776255 18.2823849,8.24236869 18.4130117,8.76310764 C12.04962,8.46585249 6.40700847,5.62999499 2.63049415,1.32088022 C1.97036224,2.37103709 1.59481017,3.59477361 1.59481017,4.90096046 C1.59481017,7.37230071 2.94773068,9.55289504 5.00043766,10.8287055 C3.74548726,10.78965 2.56518074,10.4685277 1.53182939,9.93477026 L1.53182939,10.0237298 C1.53182939,13.4736253 4.172357,16.3528778 7.67362198,17.0081409 C7.03215105,17.1687021 6.35569079,17.2576617 5.65590432,17.2576617 C5.16138855,17.2576617 4.68320113,17.212097 4.21434419,17.1274769 C5.18938001,19.9568252 8.01651735,22.0159138 11.3661619,22.0744969 C8.7466279,23.983873 5.44363576,25.1208197 1.85606379,25.1208197 C1.23791907,25.1208197 0.629104842,25.0861038 0.0296210985,25.0231812 C3.41892024,27.0453841 7.44269244,28.2257257 11.7673728,28.2257257 C25.8517419,28.2257257 33.5540583,17.3726582 33.5540583,7.96030176 L33.5283994,7.03815988 C35.0306077,6.03790716 36.3322106,4.7837942 37.3562314,3.35610159 Z" id="Shape"></path>
            </g>
            <g id="ig-logo" transform="translate(41.000000, 0.000000)" fill="#000000">
                <g id="Logo">
                    <g id="Group">
                        <path d="M16.1226392,2.70271125 C20.4284075,2.70271125 20.9338395,2.72053132 22.6356736,2.79181162 C24.2095503,2.85715189 25.0604674,3.1006929 25.629878,3.30859377 C26.384827,3.5818349 26.9222483,3.90259624 27.4852611,4.42531841 C28.0482739,4.94804059 28.4001569,5.44700266 28.6880612,6.14792558 C28.9055889,6.67658778 29.1742995,7.46661107 29.2446761,8.92785715 C29.3214506,10.5079037 29.3406442,10.9771657 29.3406442,14.9748023 C29.3406442,18.9724389 29.3214506,19.4417009 29.2446761,21.0217475 C29.1742995,22.4829935 28.9119867,23.2730168 28.6880612,23.801679 C28.393759,24.502602 28.0482739,25.001564 27.4852611,25.5242862 C26.9222483,26.0470084 26.384827,26.3737097 25.629878,26.6410108 C25.0604674,26.8429717 24.2095503,27.0924527 22.6356736,27.157793 C20.9338395,27.2290733 20.4284075,27.2468934 16.1226392,27.2468934 C11.8168709,27.2468934 11.3114389,27.2290733 9.6096048,27.157793 C8.03572811,27.0924527 7.18481104,26.8489117 6.61540037,26.6410108 C5.86045139,26.3677697 5.32303009,26.0470084 4.76001729,25.5242862 C4.19700449,25.001564 3.84512149,24.502602 3.55721722,23.801679 C3.33968955,23.2730168 3.0709789,22.4829935 3.0006023,21.0217475 C2.92382782,19.4417009 2.90463421,18.9724389 2.90463421,14.9748023 C2.90463421,10.9771657 2.92382782,10.5079037 3.0006023,8.92785715 C3.0709789,7.46661107 3.33329168,6.67658778 3.55721722,6.14792558 C3.85151937,5.44700266 4.19700449,4.94804059 4.76001729,4.42531841 C5.32303009,3.90259624 5.86045139,3.57589488 6.61540037,3.30859377 C7.18481104,3.10663293 8.03572811,2.85715189 9.6096048,2.79181162 C11.3114389,2.7145913 11.8168709,2.70271125 16.1226392,2.70271125 L16.1226392,2.70271125 Z M16.1226392,0.00594002472 C11.7464943,0.00594002472 11.1962772,0.0237600989 9.47524947,0.0950403955 C7.76061959,0.166320692 6.58980888,0.421741755 5.56614925,0.790023287 C4.50410238,1.17018487 3.6084002,1.68696702 2.71269803,2.51857048 C1.81699585,3.35017394 1.26677879,4.18771742 0.850917069,5.1678215 C0.454248962,6.11822546 0.179140436,7.20524998 0.102365963,8.80311663 C0.0255914908,10.3950433 0.0063978727,10.9058854 0.0063978727,14.9688623 C0.0063978727,19.0318392 0.0255914908,19.5426813 0.102365963,21.140548 C0.179140436,22.7324746 0.454248962,23.8194991 0.850917069,24.7758431 C1.26038092,25.7618872 1.81699585,26.5934907 2.71269803,27.4250941 C3.6084002,28.2566976 4.51050025,28.7675397 5.56614925,29.1536413 C6.58980888,29.5219228 7.76061959,29.7773439 9.48164734,29.8486242 C11.2026751,29.9199045 11.7464943,29.9377246 16.1290371,29.9377246 C20.5115799,29.9377246 21.0553991,29.9199045 22.7764268,29.8486242 C24.4910567,29.7773439 25.6618674,29.5219228 26.6919249,29.1536413 C27.7539718,28.7734797 28.649674,28.2566976 29.5453761,27.4250941 C30.4410783,26.5934907 30.9912954,25.7559472 31.4071571,24.7758431 C31.8038252,23.8254391 32.0789337,22.7384146 32.1557082,21.140548 C32.2324827,19.5426813 32.2516763,19.0377792 32.2516763,14.9688623 C32.2516763,10.8999454 32.2324827,10.3950433 32.1557082,8.7971766 C32.0789337,7.20524998 31.8038252,6.11822546 31.4071571,5.16188148 C30.9976932,4.17583738 30.4410783,3.34423391 29.5453761,2.51263045 C28.649674,1.68102699 27.7475739,1.17018487 26.6919249,0.784083262 C25.6682653,0.41580173 24.4974546,0.160380667 22.7764268,0.0891003707 C21.0490012,0.0237600989 20.4987841,0.00594002472 16.1226392,0.00594002472 L16.1226392,0.00594002472 Z" id="Shape"></path>
                        <path d="M16.1226392,7.2824703 C11.5545581,7.2824703 7.84379193,10.7217446 7.84379193,14.9688623 C7.84379193,19.21598 11.5545581,22.6552543 16.1226392,22.6552543 C20.6907203,22.6552543 24.4014865,19.2100399 24.4014865,14.9688623 C24.4014865,10.7276846 20.6907203,7.2824703 16.1226392,7.2824703 Z M16.1226392,19.958483 C13.1540263,19.958483 10.7484261,17.7250338 10.7484261,14.9688623 C10.7484261,12.2126908 13.1540263,9.97924152 16.1226392,9.97924152 C19.0912521,9.97924152 21.4968523,12.2126908 21.4968523,14.9688623 C21.4968523,17.7250338 19.0912521,19.958483 16.1226392,19.958483 Z" id="Shape"></path>
                        <ellipse id="Oval" cx="24.727778" cy="6.97952904" rx="1.93215756" ry="1.79388746"></ellipse>
                    </g>
                </g>
            </g>
        </g>
    </g>
</svg>
